<svg width="64" height="65" viewBox="0 0 64 65" fill="none" xmlns="http://www.w3.org/2000/svg">
<g clip-path="url(#clip0_8_2415)">
<path d="M38 6.37378C38 4.78248 37.3679 3.25636 36.2426 2.13114C35.1174 1.00592 33.5913 0.373779 32 0.373779C30.4087 0.373779 28.8826 1.00592 27.7574 2.13114C26.6321 3.25636 26 4.78248 26 6.37378C26 7.96508 26.6321 9.4912 27.7574 10.6164C28.8826 11.7416 30.4087 12.3738 32 12.3738C33.5913 12.3738 35.1174 11.7416 36.2426 10.6164C37.3679 9.4912 38 7.96508 38 6.37378ZM38 58.3738C38 56.7825 37.3679 55.2564 36.2426 54.1311C35.1174 53.0059 33.5913 52.3738 32 52.3738C30.4087 52.3738 28.8826 53.0059 27.7574 54.1311C26.6321 55.2564 26 56.7825 26 58.3738C26 59.9651 26.6321 61.4912 27.7574 62.6164C28.8826 63.7416 30.4087 64.3738 32 64.3738C33.5913 64.3738 35.1174 63.7416 36.2426 62.6164C37.3679 61.4912 38 59.9651 38 58.3738ZM6 38.3738C7.5913 38.3738 9.11742 37.7416 10.2426 36.6164C11.3679 35.4912 12 33.9651 12 32.3738C12 30.7825 11.3679 29.2564 10.2426 28.1311C9.11742 27.0059 7.5913 26.3738 6 26.3738C4.4087 26.3738 2.88258 27.0059 1.75736 28.1311C0.632141 29.2564 0 30.7825 0 32.3738C0 33.9651 0.632141 35.4912 1.75736 36.6164C2.88258 37.7416 4.4087 38.3738 6 38.3738ZM64 32.3738C64 30.7825 63.3679 29.2564 62.2426 28.1311C61.1174 27.0059 59.5913 26.3738 58 26.3738C56.4087 26.3738 54.8826 27.0059 53.7574 28.1311C52.6321 29.2564 52 30.7825 52 32.3738C52 33.9651 52.6321 35.4912 53.7574 36.6164C54.8826 37.7416 56.4087 38.3738 58 38.3738C59.5913 38.3738 61.1174 37.7416 62.2426 36.6164C63.3679 35.4912 64 33.9651 64 32.3738ZM17.8625 54.9988C18.4198 54.4415 18.8619 53.7799 19.1635 53.0517C19.4651 52.3236 19.6203 51.5432 19.6203 50.755C19.6203 49.9669 19.4651 49.1865 19.1635 48.4583C18.8619 47.7302 18.4198 47.0686 17.8625 46.5113C17.3052 45.954 16.6436 45.5119 15.9155 45.2103C15.1873 44.9087 14.4069 44.7535 13.6187 44.7535C12.027 44.7535 10.5005 45.3858 9.375 46.5113C8.24949 47.6368 7.61718 49.1633 7.61718 50.755C7.61718 52.3467 8.24949 53.8733 9.375 54.9988C10.5005 56.1243 12.027 56.7566 13.6187 56.7566C15.2105 56.7566 16.737 56.1243 17.8625 54.9988ZM17.8625 18.2238C18.4475 17.673 18.9159 17.0103 19.2399 16.275C19.5639 15.5397 19.7369 14.7469 19.7487 13.9435C19.7605 13.1401 19.6108 12.3425 19.3085 11.598C19.0062 10.8536 18.5575 10.1774 17.9889 9.60969C17.4203 9.04195 16.7435 8.5942 15.9986 8.29299C15.2537 7.99179 14.4559 7.84326 13.6525 7.85624C12.8491 7.86921 12.0565 8.04341 11.3217 8.36851C10.587 8.69361 9.92495 9.16298 9.375 9.74878C8.24949 10.8743 7.61718 12.4008 7.61718 13.9925C7.61718 15.5842 8.24949 17.1108 9.375 18.2363C10.5005 19.3618 12.027 19.9941 13.6187 19.9941C15.2105 19.9941 16.737 19.3618 17.8625 18.2363V18.2238ZM46.1375 54.9988C46.6948 55.5561 47.3564 55.9981 48.0845 56.2998C48.8127 56.6014 49.5931 56.7566 50.3812 56.7566C51.1694 56.7566 51.9498 56.6014 52.678 56.2998C53.4061 55.9981 54.0677 55.5561 54.625 54.9988C55.1823 54.4415 55.6244 53.7799 55.926 53.0517C56.2276 52.3236 56.3828 51.5432 56.3828 50.755C56.3828 49.9669 56.2276 49.1865 55.926 48.4583C55.6244 47.7302 55.1823 47.0686 54.625 46.5113C54.0677 45.954 53.4061 45.5119 52.678 45.2103C51.9498 44.9087 51.1694 44.7535 50.3812 44.7535C49.5931 44.7535 48.8127 44.9087 48.0845 45.2103C47.3564 45.5119 46.6948 45.954 46.1375 46.5113C45.5802 47.0686 45.1381 47.7302 44.8365 48.4583C44.5349 49.1865 44.3797 49.9669 44.3797 50.755C44.3797 51.5432 44.5349 52.3236 44.8365 53.0517C45.1381 53.7799 45.5802 54.4415 46.1375 54.9988Z" fill="url(#paint0_linear_8_2415)"/>
</g>
<defs>
<linearGradient id="paint0_linear_8_2415" x1="35" y1="3.65351" x2="29" y2="61.094" gradientUnits="userSpaceOnUse">
<stop stop-color="#7DD3FC"/>
<stop offset="1" stop-color="#F0F9FF"/>
</linearGradient>
<clipPath id="clip0_8_2415">
<rect width="64" height="64" fill="white" transform="translate(0 0.373779)"/>
</clipPath>
</defs>
</svg>
