<svg width="322" height="48" viewBox="0 0 322 48" fill="none" xmlns="http://www.w3.org/2000/svg">
<path d="M74.5518 7.06128C77.6445 7.06133 80.1211 7.98718 82.127 9.89136C84.0834 11.7889 85.0723 14.3102 85.0723 17.4021V34.5593C85.0723 34.5593 80.6585 34.5597 80.6582 30.0251V17.5515C80.7024 16.0613 80.2374 14.6001 79.3408 13.4138C78.221 11.9775 76.6464 11.2811 74.5254 11.281C72.4076 11.281 70.8395 11.9777 69.7559 13.4207C68.8573 14.6072 68.3922 16.0697 68.4385 17.5613V34.5593H64.0312V17.4558C63.9975 16.0467 63.4579 14.5196 62.6221 13.4138C61.5023 11.9775 59.9276 11.2811 57.8066 11.281C55.6889 11.281 54.1207 11.9777 53.0371 13.4207C52.1386 14.6072 51.6734 16.0697 51.7197 17.5613V34.5593H47.3125V17.4021C47.3125 14.2671 48.3535 11.729 50.333 9.85132C52.3125 7.97373 54.7402 7.06128 57.833 7.06128C60.9256 7.06137 63.4024 7.98723 65.4082 9.89136C65.6953 10.1698 65.9597 10.4631 66.2051 10.7683C66.4653 10.4476 66.7465 10.1409 67.0518 9.85132C69.0313 7.97366 71.4589 7.06128 74.5518 7.06128Z" fill="white"/>
<path d="M97.794 38.7027L99.075 35.29L87.7471 7.06128H93.0576L101.4 30.2904H101.511L109.524 7.06128H114.497L101.938 39.6406C100.995 41.7124 100.105 42.9998 99.1252 43.9768C97.0405 46.0594 94.5001 47.1863 91.1523 47.1863V43.4063C93.4595 43.4063 95.1998 42.6931 96.3839 41.1133C96.9417 40.3638 97.4146 39.5553 97.794 38.7027Z" fill="white"/>
<path d="M179.667 22.1666C179.667 17.478 178.568 13.7684 176.406 11.1328C174.199 8.44633 171.11 7.08447 167.213 7.08447C163.316 7.08447 160.065 8.49714 157.67 11.2818C155.409 13.9107 154.264 17.2544 154.264 21.218C154.264 25.3205 155.302 28.6439 157.357 31.1067C159.62 33.7999 162.942 35.172 167.213 35.172C170.582 35.172 173.337 34.3013 175.419 32.5804C177.187 31.1067 178.531 28.9657 179.407 26.2216L179.66 25.4357H174.839L174.721 25.9032C174.367 27.5074 173.424 28.918 172.081 29.8533C170.647 30.8217 168.949 31.3178 167.223 31.2727C164.528 31.2727 162.463 30.4326 160.968 28.6981C159.667 27.1939 158.946 25.2019 158.866 22.773H179.677L179.667 22.1666ZM167.203 10.9702C169.729 10.9702 171.646 11.8137 173.071 13.5448C174.27 14.9948 174.924 16.8682 175.025 19.1108H158.943C159.24 17.0789 160.087 15.1684 161.392 13.5889C162.102 12.7381 162.995 12.0604 164.003 11.6068C165.012 11.1532 166.109 10.9356 167.213 10.9702H167.203Z" fill="white"/>
<path d="M255.284 22.1434C255.284 17.4548 254.186 13.7452 252.023 11.1096C249.817 8.42313 246.728 7.06128 242.83 7.06128C238.933 7.06128 235.682 8.47395 233.287 11.2586C231.027 13.8875 229.881 17.2312 229.881 21.1948C229.881 25.2973 230.919 28.6207 232.974 31.0835C235.237 33.7768 238.559 35.1488 242.83 35.1488C246.199 35.1488 248.954 34.2781 251.036 32.5572C252.804 31.0835 254.149 28.9425 255.024 26.1984L255.277 25.4125H250.457L250.339 25.88C249.984 27.4842 249.041 28.8948 247.698 29.8301C246.264 30.7985 244.567 31.2946 242.84 31.2495C240.145 31.2495 238.08 30.4094 236.585 28.6749C235.285 27.1707 234.564 25.1787 234.483 22.7498H255.294L255.284 22.1434ZM242.82 10.947C245.346 10.947 247.263 11.7905 248.688 13.5216C249.887 14.9716 250.541 16.845 250.642 19.0876H234.56C234.857 17.0557 235.704 15.1452 237.009 13.5657C237.719 12.7149 238.612 12.0372 239.62 11.5836C240.629 11.1301 241.726 10.9124 242.83 10.947H242.82Z" fill="white"/>
<path d="M192.1 12.117H198.402V7.80085H191.749V4.9389C191.749 0.39697 186.954 0.396973 186.954 0.396973V7.80085H182.352V12.117H186.954V24.8265C186.954 27.964 188.059 30.5039 190.235 32.3831C192.411 34.2623 195.048 35.172 198.387 35.172V30.9554C196.086 30.9554 194.383 30.2549 193.17 28.8173C192.195 27.6291 191.689 26.1663 191.738 24.6737V12.117H192.1Z" fill="white"/>
<path d="M138.189 11.3947C140.346 11.3947 141.947 12.1063 143.086 13.5735C143.998 14.7852 144.471 16.2768 144.426 17.799V30.5399C144.426 35.172 148.914 35.172 148.914 35.172V17.6465C148.914 14.4884 147.909 11.9131 145.92 9.97489C143.88 8.02987 141.361 7.08447 138.216 7.08447C135.071 7.08447 132.602 8.01632 130.589 9.93423C128.576 11.8521 127.514 14.4443 127.514 17.6465V35.172H131.999V17.8092C131.952 16.2857 132.425 14.7922 133.339 13.5803C134.454 12.1063 136.035 11.3947 138.189 11.3947Z" fill="white"/>
<path d="M222.145 10.462C220.108 8.55845 217.6 7.6332 214.453 7.6332C212.022 7.6332 209.982 8.19697 208.246 9.32784V0.396973H203.751V35.162H208.229V18.1294C208.181 16.6381 208.653 15.176 209.567 13.9906C210.701 12.5579 212.293 11.8615 214.443 11.8615C216.593 11.8615 218.192 12.5579 219.329 13.9939C220.239 15.1798 220.712 16.6396 220.667 18.1294V30.6385C220.667 35.172 225.151 35.172 225.151 35.172V17.9702C225.128 14.8794 224.118 12.359 222.145 10.462Z" fill="white"/>
<path d="M265.718 28.5677C266.121 29.232 266.681 29.7857 267.349 30.1792C268.056 30.5925 268.826 30.8837 269.629 31.0406C270.489 31.2151 271.364 31.3022 272.242 31.3008C272.97 31.2974 273.697 31.2444 274.417 31.142C275.14 31.0498 275.846 30.8577 276.516 30.5711C277.137 30.3065 277.681 29.8853 278.093 29.3481C278.527 28.7544 278.746 28.0299 278.715 27.2942C278.742 26.785 278.637 26.2774 278.41 25.8214C278.183 25.3653 277.842 24.9764 277.42 24.6929C276.426 24.0433 275.334 23.5596 274.185 23.2605C272.89 22.8957 271.483 22.5669 269.965 22.2741C268.519 22.0007 267.104 21.5819 265.741 21.0241C264.506 20.5269 263.399 19.7527 262.507 18.7607C261.643 17.79 261.212 16.4387 261.212 14.7068C261.178 13.4816 261.493 12.2722 262.12 11.2204C262.709 10.2654 263.505 9.45685 264.45 8.85567C265.439 8.23262 266.523 7.77617 267.658 7.50437C268.819 7.21367 270.01 7.06508 271.206 7.06182C272.614 7.05175 274.02 7.18303 275.403 7.4537C276.607 7.68466 277.758 8.14321 278.792 8.80499C279.784 9.45736 280.594 10.3525 281.146 11.4063C281.781 12.6767 282.134 14.07 282.182 15.4906H277.784C277.747 14.725 277.515 13.9818 277.111 13.3318C276.739 12.7673 276.243 12.2958 275.662 11.9535C275.057 11.6006 274.401 11.3453 273.718 11.1968C273.012 11.0415 272.292 10.9633 271.569 10.9637C270.902 10.9657 270.235 11.0177 269.575 11.1191C268.939 11.213 268.32 11.3973 267.736 11.6664C267.213 11.9038 266.753 12.26 266.391 12.7069C266.028 13.1927 265.845 13.7897 265.873 14.396C265.864 14.7518 265.931 15.1054 266.069 15.433C266.208 15.7605 266.415 16.0543 266.676 16.2946C267.273 16.8361 267.967 17.2591 268.721 17.5412C269.629 17.8957 270.565 18.1747 271.519 18.3756C272.554 18.6008 273.59 18.835 274.626 19.0782C275.729 19.3215 276.807 19.6154 277.861 19.96C278.855 20.2796 279.798 20.744 280.659 21.3383C281.464 21.9058 282.135 22.6438 282.626 23.5004C283.156 24.4888 283.415 25.6011 283.376 26.7232C283.429 28.1433 283.079 29.5493 282.367 30.7771C281.705 31.8435 280.8 32.7364 279.727 33.3818C278.593 34.0579 277.347 34.5247 276.048 34.7601C274.708 35.0174 273.347 35.1475 271.983 35.1486C270.554 35.1552 269.129 34.9976 267.736 34.679C266.46 34.3986 265.248 33.8782 264.164 33.1453C263.12 32.4278 262.267 31.4638 261.679 30.3379C261.018 29.0221 260.664 27.5722 260.644 26.0983H265.045C265.051 26.9663 265.283 27.8177 265.718 28.5677Z" fill="white"/>
<path d="M303.168 28.5677C303.571 29.232 304.131 29.7857 304.799 30.1792C305.506 30.5925 306.276 30.8837 307.079 31.0406C307.939 31.2151 308.814 31.3022 309.692 31.3008C310.42 31.2974 311.147 31.2444 311.868 31.142C312.59 31.0498 313.296 30.8577 313.966 30.5711C314.588 30.3065 315.131 29.8853 315.543 29.3481C315.977 28.7544 316.196 28.0299 316.165 27.2942C316.192 26.785 316.088 26.2774 315.861 25.8214C315.634 25.3653 315.292 24.9764 314.87 24.6929C313.876 24.0433 312.784 23.5596 311.636 23.2605C310.34 22.8957 308.933 22.5669 307.415 22.2741C305.969 22.0007 304.554 21.5819 303.192 21.0241C301.956 20.5269 300.849 19.7527 299.957 18.7607C299.094 17.79 298.662 16.4387 298.662 14.7068C298.629 13.4816 298.944 12.2722 299.57 11.2204C300.159 10.2654 300.956 9.45685 301.9 8.85567C302.889 8.23262 303.973 7.77617 305.108 7.50437C306.269 7.21367 307.46 7.06508 308.656 7.06182C310.065 7.05175 311.47 7.18303 312.853 7.4537C314.058 7.68466 315.208 8.14321 316.243 8.80499C317.234 9.45736 318.044 10.3525 318.596 11.4063C319.231 12.6767 319.584 14.07 319.632 15.4906H315.234C315.197 14.725 314.965 13.9818 314.561 13.3318C314.189 12.7673 313.693 12.2958 313.112 11.9535C312.507 11.6006 311.851 11.3453 311.168 11.1968C310.462 11.0415 309.742 10.9633 309.019 10.9637C308.352 10.9657 307.685 11.0177 307.025 11.1191C306.389 11.213 305.77 11.3973 305.186 11.6664C304.663 11.9038 304.203 12.26 303.841 12.7069C303.479 13.1927 303.296 13.7897 303.323 14.396C303.314 14.7518 303.381 15.1054 303.519 15.433C303.658 15.7605 303.865 16.0543 304.127 16.2946C304.724 16.8361 305.417 17.2591 306.171 17.5412C307.079 17.8957 308.015 18.1747 308.969 18.3756C310.005 18.6008 311.04 18.835 312.076 19.0782C313.179 19.3215 314.257 19.6154 315.311 19.96C316.306 20.2796 317.248 20.744 318.109 21.3383C318.914 21.9058 319.586 22.6438 320.076 23.5004C320.606 24.4888 320.865 25.6011 320.826 26.7232C320.879 28.1433 320.529 29.5493 319.817 30.7771C319.155 31.8435 318.251 32.7364 317.177 33.3818C316.043 34.0579 314.797 34.5247 313.498 34.7601C312.158 35.0174 310.797 35.1475 309.433 35.1486C308.004 35.1552 306.579 34.9976 305.186 34.679C303.91 34.3986 302.698 33.8782 301.615 33.1453C300.57 32.4278 299.717 31.4638 299.129 30.3379C298.468 29.0221 298.114 27.5722 298.094 26.0983H302.496C302.501 26.9663 302.733 27.8177 303.168 28.5677Z" fill="white"/>
<path d="M292.744 7.08447V35.172H288.731V7.08447H292.744Z" fill="white"/>
<path d="M291.02 4.91225C292.283 4.91225 293.308 3.89628 293.308 2.64301C293.308 1.38975 292.283 0.373779 291.02 0.373779C289.756 0.373779 288.731 1.38975 288.731 2.64301C288.731 3.89628 289.756 4.91225 291.02 4.91225Z" fill="white"/>
<path d="M13.7867 18.6693C12.4098 19.9695 11.5485 21.8127 11.5485 23.8589C11.5485 25.4663 12.0806 26.9475 12.9748 28.1379L10.2593 30.8698C10.0179 30.7821 9.7601 30.7327 9.49129 30.7327C8.89882 30.7327 8.34475 30.9631 7.92783 31.38C7.5109 31.7969 7.2805 32.3565 7.2805 32.949C7.2805 33.5414 7.5109 34.0955 7.92783 34.5124C8.34475 34.9293 8.90431 35.1488 9.49129 35.1488C10.0838 35.1488 10.6378 34.9348 11.0602 34.5124C11.4772 34.0955 11.7076 33.5359 11.7076 32.949C11.7076 32.7186 11.6747 32.4991 11.6033 32.2852L14.3463 29.5313C15.5531 30.4584 17.0563 31.007 18.6965 31.007C22.6408 31.007 25.8281 27.8087 25.8281 23.8644C25.8281 20.2876 23.2114 17.3253 19.7827 16.8041V13.4249C20.7427 13.0189 21.3297 12.1192 21.3297 11.0714C21.3297 9.63962 20.1832 8.44371 18.7514 8.44371C17.3196 8.44371 16.1895 9.63962 16.1895 11.0714C16.1895 12.1192 16.7765 13.0189 17.7365 13.4249V16.7822C16.9027 16.8974 16.1127 17.1497 15.3941 17.5283C13.88 16.3817 8.94819 12.8269 6.12847 10.6819C6.1943 10.4406 6.23819 10.1882 6.23819 9.92489C6.23819 8.34497 4.94902 7.06128 3.36361 7.06128C1.78369 7.06128 0.5 8.34497 0.5 9.92489C0.5 11.5103 1.78369 12.794 3.36361 12.794C3.90122 12.794 4.40043 12.6349 4.83381 12.3771L13.7867 18.6693ZM18.6965 27.6442C16.6064 27.6442 14.9113 25.949 14.9113 23.8589C14.9113 21.7688 16.6064 20.0737 18.6965 20.0737C20.7866 20.0737 22.4818 21.7688 22.4818 23.8589C22.4818 25.949 20.7866 27.6442 18.6965 27.6442Z" fill="white"/>
</svg>
