<svg width="234" height="34" viewBox="0 0 234 34" fill="none" xmlns="http://www.w3.org/2000/svg">
<path d="M54.251 4.85449C56.4959 4.85453 58.294 5.52605 59.75 6.9082C61.17 8.28556 61.8867 10.1162 61.8867 12.3604V24.8145C61.8521 24.8144 58.6837 24.7961 58.6836 21.5225V12.4688C58.7157 11.387 58.3774 10.3269 57.7266 9.46582C56.9137 8.42316 55.7711 7.91699 54.2314 7.91699C52.6943 7.91704 51.5561 8.42327 50.7695 9.4707C50.1175 10.3319 49.7799 11.3931 49.8135 12.4756V24.8145H46.6143V12.3936C46.5885 11.3724 46.1972 10.267 45.5918 9.46582C44.7789 8.42316 43.6354 7.91699 42.0957 7.91699C40.5586 7.91708 39.4203 8.42331 38.6338 9.4707C37.9818 10.3319 37.6441 11.3931 37.6777 12.4756V24.8145H34.4795V12.3604C34.4795 10.0848 35.2341 8.24183 36.6709 6.87891C38.1078 5.51598 39.8703 4.85449 42.1152 4.85449C44.3602 4.85449 46.1583 5.52601 47.6143 6.9082C47.8226 7.11031 48.0143 7.32344 48.1924 7.54492C48.3813 7.31212 48.5851 7.08909 48.8066 6.87891C50.2435 5.516 52.006 4.85449 54.251 4.85449Z" fill="#0369A1"/>
<path d="M71.1217 27.8214L72.0516 25.3443L63.8291 4.85425H67.6838L73.7393 21.7153H73.82L79.6359 4.85425H83.2458L74.13 28.5021C73.445 30.006 72.7991 30.9404 72.088 31.6497C70.5748 33.1613 68.7308 33.9792 66.3008 33.9792V31.2355C67.9755 31.2355 69.2387 30.7178 70.0982 29.5712C70.5031 29.0271 70.8463 28.4403 71.1217 27.8214Z" fill="#0369A1"/>
<path d="M130.549 15.8185C130.549 12.4153 129.752 9.72268 128.182 7.80958C126.581 5.8596 124.339 4.87109 121.51 4.87109C118.681 4.87109 116.321 5.89649 114.583 7.91778C112.942 9.82596 112.111 12.253 112.111 15.13C112.111 18.1078 112.864 20.5201 114.355 22.3078C115.999 24.2627 118.409 25.2586 121.51 25.2586C123.955 25.2586 125.955 24.6266 127.466 23.3775C128.75 22.3078 129.725 20.7537 130.361 18.7619L130.544 18.1914H127.046L126.96 18.5308C126.703 19.6952 126.018 20.7191 125.043 21.398C124.002 22.1009 122.77 22.461 121.517 22.4283C119.561 22.4283 118.062 21.8185 116.977 20.5595C116.033 19.4677 115.51 18.0218 115.451 16.2587H130.557L130.549 15.8185ZM121.502 7.69156C123.336 7.69156 124.728 8.30385 125.762 9.56039C126.632 10.6128 127.107 11.9727 127.18 13.6005H115.507C115.722 12.1256 116.337 10.7388 117.285 9.59235C117.8 8.97482 118.448 8.48293 119.18 8.15368C119.912 7.82444 120.708 7.66644 121.51 7.69156H121.502Z" fill="#0369A1"/>
<path d="M185.437 15.8017C185.437 12.3984 184.639 9.70583 183.07 7.79274C181.468 5.84276 179.226 4.85425 176.397 4.85425C173.568 4.85425 171.209 5.87964 169.47 7.90093C167.829 9.80911 166.998 12.2361 166.998 15.1132C166.998 18.091 167.751 20.5033 169.243 22.291C170.886 24.2459 173.297 25.2417 176.397 25.2417C178.842 25.2417 180.842 24.6098 182.353 23.3606C183.637 22.291 184.613 20.7369 185.248 18.7451L185.432 18.1746H181.933L181.847 18.5139C181.59 19.6783 180.905 20.7023 179.93 21.3811C178.89 22.0841 177.657 22.4442 176.404 22.4114C174.448 22.4114 172.949 21.8016 171.864 20.5426C170.92 19.4508 170.397 18.0049 170.338 16.2418H185.444L185.437 15.8017ZM176.39 7.67471C178.224 7.67471 179.615 8.287 180.649 9.54355C181.52 10.596 181.994 11.9558 182.067 13.5837H170.394C170.61 12.1088 171.225 10.722 172.172 9.57551C172.687 8.95798 173.335 8.46608 174.067 8.13684C174.799 7.8076 175.596 7.64959 176.397 7.67471H176.39Z" fill="#0369A1"/>
<path d="M139.574 8.52392H144.148V5.391H139.319V3.31364C139.319 0.0168439 135.838 0.0168457 135.838 0.0168457V5.391H132.498V8.52392H135.838V17.7492C135.838 20.0265 136.641 21.8701 138.22 23.2342C139.8 24.5982 141.714 25.2585 144.138 25.2585V22.1979C142.467 22.1979 141.231 21.6894 140.35 20.6459C139.643 19.7835 139.276 18.7217 139.311 17.6383V8.52392H139.574Z" fill="#0369A1"/>
<path d="M100.442 7.99969C102.008 7.99969 103.17 8.5162 103.997 9.5812C104.659 10.4607 105.002 11.5434 104.969 12.6483V21.8963C104.969 25.2586 108.227 25.2586 108.227 25.2586V12.5376C108.227 10.2453 107.498 8.376 106.054 6.96912C104.573 5.55732 102.745 4.87109 100.462 4.87109C98.1788 4.87109 96.3869 5.54748 94.9257 6.93961C93.4646 8.33173 92.6938 10.2133 92.6938 12.5376V25.2586H95.9493V12.6557C95.9151 11.5498 96.2586 10.4658 96.9218 9.58611C97.7314 8.5162 98.879 7.99969 100.442 7.99969Z" fill="#0369A1"/>
<path d="M161.383 7.32263C159.904 5.94091 158.084 5.26931 155.8 5.26931C154.035 5.26931 152.554 5.67853 151.294 6.49937V0.0168457H148.032V25.2513H151.282V12.888C151.247 11.8056 151.59 10.7443 152.253 9.88386C153.076 8.84396 154.231 8.33846 155.792 8.33846C157.353 8.33846 158.514 8.84397 159.339 9.88627C160 10.7471 160.342 11.8067 160.31 12.888V21.9679C160.31 25.2585 163.565 25.2585 163.565 25.2585V12.7725C163.548 10.529 162.815 8.69954 161.383 7.32263Z" fill="#0369A1"/>
<path d="M193.01 20.4649C193.303 20.947 193.709 21.3489 194.194 21.6345C194.707 21.9345 195.267 22.1459 195.849 22.2598C196.473 22.3864 197.109 22.4497 197.746 22.4486C198.274 22.4462 198.802 22.4077 199.325 22.3334C199.849 22.2665 200.362 22.127 200.848 21.919C201.299 21.7269 201.694 21.4212 201.993 21.0313C202.308 20.6003 202.467 20.0745 202.444 19.5404C202.464 19.1708 202.388 18.8024 202.223 18.4714C202.059 18.1403 201.811 17.8581 201.505 17.6523C200.783 17.1808 199.99 16.8296 199.157 16.6126C198.216 16.3477 197.195 16.1091 196.093 15.8966C195.044 15.6981 194.017 15.3942 193.028 14.9893C192.131 14.6284 191.327 14.0664 190.679 13.3463C190.053 12.6418 189.74 11.6609 189.74 10.4038C189.715 9.51448 189.944 8.63663 190.399 7.8732C190.826 7.17996 191.404 6.59309 192.09 6.15672C192.808 5.70447 193.595 5.37315 194.419 5.17587C195.261 4.96486 196.126 4.857 196.994 4.85464C198.016 4.84733 199.037 4.94262 200.04 5.13909C200.915 5.30674 201.75 5.63957 202.501 6.11994C203.22 6.59346 203.808 7.24324 204.209 8.00807C204.67 8.93025 204.926 9.94158 204.961 10.9727H201.768C201.742 10.417 201.574 9.87753 201.28 9.40578C201.01 8.996 200.65 8.65377 200.228 8.40532C199.789 8.14917 199.313 7.96382 198.817 7.85604C198.305 7.74328 197.782 7.68655 197.258 7.68685C196.773 7.68831 196.289 7.72601 195.81 7.79964C195.349 7.86781 194.899 8.00156 194.475 8.19689C194.096 8.36919 193.761 8.62776 193.499 8.95214C193.236 9.3048 193.103 9.73813 193.123 10.1782C193.116 10.4365 193.165 10.6932 193.265 10.9309C193.366 11.1687 193.516 11.3819 193.706 11.5563C194.139 11.9493 194.643 12.2564 195.19 12.4611C195.849 12.7185 196.529 12.921 197.221 13.0668C197.973 13.2303 198.725 13.4003 199.476 13.5768C200.277 13.7534 201.06 13.9667 201.824 14.2168C202.546 14.4488 203.231 14.7859 203.855 15.2173C204.44 15.6292 204.927 16.165 205.283 16.7867C205.668 17.5041 205.856 18.3115 205.827 19.126C205.866 20.1568 205.612 21.1774 205.095 22.0686C204.615 22.8426 203.958 23.4907 203.179 23.9591C202.356 24.45 201.451 24.7888 200.509 24.9596C199.536 25.1464 198.548 25.2408 197.558 25.2416C196.521 25.2464 195.486 25.132 194.475 24.9008C193.549 24.6972 192.669 24.3195 191.883 23.7875C191.125 23.2667 190.505 22.567 190.079 21.7498C189.599 20.7946 189.342 19.7422 189.327 18.6724H192.522C192.526 19.3024 192.695 19.9204 193.01 20.4649Z" fill="#0369A1"/>
<path d="M220.194 20.4649C220.486 20.947 220.893 21.3489 221.377 21.6345C221.89 21.9345 222.45 22.1459 223.032 22.2598C223.657 22.3864 224.292 22.4497 224.929 22.4486C225.457 22.4462 225.985 22.4077 226.508 22.3334C227.032 22.2665 227.545 22.127 228.031 21.919C228.482 21.7269 228.877 21.4212 229.176 21.0313C229.491 20.6003 229.65 20.0745 229.628 19.5404C229.647 19.1708 229.571 18.8024 229.406 18.4714C229.242 18.1403 228.994 17.8581 228.688 17.6523C227.966 17.1808 227.173 16.8296 226.34 16.6126C225.399 16.3477 224.378 16.1091 223.276 15.8966C222.227 15.6981 221.2 15.3942 220.211 14.9893C219.314 14.6284 218.511 14.0664 217.863 13.3463C217.236 12.6418 216.923 11.6609 216.923 10.4038C216.898 9.51448 217.127 8.63663 217.582 7.8732C218.009 7.17996 218.588 6.59309 219.273 6.15672C219.991 5.70447 220.778 5.37315 221.602 5.17587C222.444 4.96486 223.309 4.857 224.177 4.85464C225.199 4.84733 226.22 4.94262 227.223 5.13909C228.098 5.30674 228.933 5.63957 229.684 6.11994C230.403 6.59346 230.991 7.24324 231.392 8.00807C231.853 8.93025 232.109 9.94158 232.144 10.9727H228.951C228.925 10.417 228.757 9.87753 228.463 9.40578C228.193 8.996 227.833 8.65377 227.411 8.40532C226.972 8.14917 226.496 7.96382 226 7.85604C225.488 7.74328 224.965 7.68655 224.441 7.68685C223.956 7.68831 223.472 7.72601 222.993 7.79964C222.532 7.86781 222.082 8.00156 221.658 8.19689C221.279 8.36919 220.944 8.62776 220.682 8.95214C220.419 9.3048 220.286 9.73813 220.306 10.1782C220.299 10.4365 220.348 10.6932 220.449 10.9309C220.549 11.1687 220.699 11.3819 220.889 11.5563C221.323 11.9493 221.826 12.2564 222.373 12.4611C223.033 12.7185 223.712 12.921 224.404 13.0668C225.156 13.2303 225.908 13.4003 226.659 13.5768C227.46 13.7534 228.243 13.9667 229.008 14.2168C229.729 14.4488 230.414 14.7859 231.038 15.2173C231.623 15.6292 232.11 16.165 232.466 16.7867C232.851 17.5041 233.039 18.3115 233.011 19.126C233.049 20.1568 232.795 21.1774 232.278 22.0686C231.798 22.8426 231.141 23.4907 230.362 23.9591C229.539 24.45 228.634 24.7888 227.692 24.9596C226.719 25.1464 225.731 25.2408 224.741 25.2416C223.704 25.2464 222.669 25.132 221.658 24.9008C220.732 24.6972 219.852 24.3195 219.066 23.7875C218.308 23.2667 217.688 22.567 217.262 21.7498C216.782 20.7946 216.525 19.7422 216.51 18.6724H219.705C219.71 19.3024 219.878 19.9204 220.194 20.4649Z" fill="#0369A1"/>
<path d="M212.627 4.87109V25.2586H209.714V4.87109H212.627Z" fill="#0369A1"/>
<path d="M211.375 3.29428C212.293 3.29428 213.036 2.55683 213.036 1.64714C213.036 0.737449 212.293 0 211.375 0C210.458 0 209.714 0.737449 209.714 1.64714C209.714 2.55683 210.458 3.29428 211.375 3.29428Z" fill="#0369A1"/>
<path d="M10.1442 13.28C9.14478 14.2237 8.51961 15.5617 8.51961 17.0469C8.51961 18.2136 8.90586 19.2888 9.55492 20.1528L7.58386 22.1358C7.40865 22.0721 7.2215 22.0363 7.02639 22.0363C6.59634 22.0363 6.19417 22.2035 5.89154 22.5062C5.58891 22.8088 5.42167 23.2149 5.42167 23.645C5.42167 24.075 5.58891 24.4772 5.89154 24.7798C6.19417 25.0825 6.60032 25.2417 7.02639 25.2417C7.45644 25.2417 7.85861 25.0865 8.16522 24.7798C8.46785 24.4772 8.63509 24.0711 8.63509 23.645C8.63509 23.4778 8.6112 23.3185 8.55943 23.1632L10.5504 21.1642C11.4264 21.8372 12.5175 22.2354 13.7081 22.2354C16.5711 22.2354 18.8846 19.9139 18.8846 17.0509C18.8846 14.4547 16.9852 12.3044 14.4965 11.9262V9.47329C15.1933 9.17863 15.6194 8.52559 15.6194 7.76504C15.6194 6.72576 14.7872 5.8577 13.7479 5.8577C12.7086 5.8577 11.8883 6.72576 11.8883 7.76504C11.8883 8.52559 12.3144 9.17863 13.0112 9.47329V11.9102C12.406 11.9939 11.8326 12.177 11.3109 12.4518C10.2119 11.6196 6.63218 9.03926 4.58546 7.48232C4.63325 7.30712 4.6651 7.12395 4.6651 6.93282C4.6651 5.78602 3.72935 4.85425 2.57857 4.85425C1.43177 4.85425 0.5 5.78602 0.5 6.93282C0.5 8.0836 1.43177 9.01537 2.57857 9.01537C2.9688 9.01537 3.33115 8.89989 3.64573 8.71274L10.1442 13.28ZM13.7081 19.7945C12.191 19.7945 10.9605 18.564 10.9605 17.0469C10.9605 15.5298 12.191 14.2994 13.7081 14.2994C15.2252 14.2994 16.4556 15.5298 16.4556 17.0469C16.4556 18.564 15.2252 19.7945 13.7081 19.7945Z" fill="#0369A1"/>
</svg>
