<svg width="234" height="34" viewBox="0 0 234 34" fill="none" xmlns="http://www.w3.org/2000/svg">
<path d="M54.251 4.85449C56.4959 4.85453 58.294 5.52605 59.75 6.9082C61.17 8.28556 61.8867 10.1162 61.8867 12.3604V24.8145C61.8521 24.8144 58.6837 24.7961 58.6836 21.5225V12.4688C58.7157 11.387 58.3774 10.3269 57.7266 9.46582C56.9137 8.42316 55.7711 7.91699 54.2314 7.91699C52.6943 7.91704 51.5561 8.42327 50.7695 9.4707C50.1175 10.3319 49.7799 11.3931 49.8135 12.4756V24.8145H46.6143V12.3936C46.5885 11.3724 46.1972 10.267 45.5918 9.46582C44.7789 8.42316 43.6354 7.91699 42.0957 7.91699C40.5586 7.91708 39.4203 8.42331 38.6338 9.4707C37.9818 10.3319 37.6441 11.3931 37.6777 12.4756V24.8145H34.4795V12.3604C34.4795 10.0848 35.2341 8.24183 36.6709 6.87891C38.1078 5.51598 39.8703 4.85449 42.1152 4.85449C44.3602 4.85449 46.1583 5.52601 47.6143 6.9082C47.8226 7.11031 48.0143 7.32344 48.1924 7.54492C48.3813 7.31212 48.5851 7.08909 48.8066 6.87891C50.2435 5.516 52.006 4.85449 54.251 4.85449Z" fill="#0EA5E9"/>
<path d="M71.1217 27.8211L72.0516 25.344L63.8291 4.854H67.6838L73.7393 21.715H73.82L79.6359 4.854H83.2458L74.13 28.5019C73.445 30.0058 72.7991 30.9402 72.088 31.6494C70.5748 33.1611 68.7308 33.979 66.3008 33.979V31.2353C67.9755 31.2353 69.2387 30.7176 70.0982 29.5709C70.5031 29.0268 70.8463 28.44 71.1217 27.8211Z" fill="#0EA5E9"/>
<path d="M130.549 15.8185C130.549 12.4153 129.752 9.72268 128.182 7.80958C126.581 5.8596 124.339 4.87109 121.51 4.87109C118.681 4.87109 116.321 5.89649 114.583 7.91778C112.942 9.82596 112.111 12.253 112.111 15.13C112.111 18.1078 112.864 20.5201 114.355 22.3078C115.999 24.2627 118.409 25.2586 121.51 25.2586C123.955 25.2586 125.955 24.6266 127.466 23.3775C128.75 22.3078 129.725 20.7537 130.361 18.7619L130.544 18.1914H127.046L126.96 18.5308C126.703 19.6952 126.018 20.7191 125.043 21.398C124.002 22.1009 122.77 22.461 121.517 22.4283C119.561 22.4283 118.062 21.8185 116.977 20.5595C116.033 19.4677 115.51 18.0218 115.451 16.2587H130.557L130.549 15.8185ZM121.502 7.69156C123.336 7.69156 124.728 8.30385 125.762 9.56039C126.632 10.6128 127.107 11.9727 127.18 13.6005H115.507C115.722 12.1256 116.337 10.7388 117.285 9.59235C117.8 8.97482 118.448 8.48293 119.18 8.15368C119.912 7.82444 120.708 7.66644 121.51 7.69156H121.502Z" fill="#0EA5E9"/>
<path d="M185.437 15.8014C185.437 12.3982 184.639 9.70559 183.07 7.79249C181.468 5.84251 179.226 4.854 176.397 4.854C173.568 4.854 171.209 5.8794 169.47 7.90069C167.829 9.80887 166.998 12.2359 166.998 15.1129C166.998 18.0908 167.751 20.503 169.243 22.2907C170.886 24.2456 173.297 25.2415 176.397 25.2415C178.842 25.2415 180.842 24.6095 182.353 23.3604C183.637 22.2907 184.613 20.7366 185.248 18.7448L185.432 18.1744H181.933L181.847 18.5137C181.59 19.6781 180.905 20.702 179.93 21.3809C178.89 22.0838 177.657 22.4439 176.404 22.4112C174.448 22.4112 172.949 21.8014 171.864 20.5424C170.92 19.4506 170.397 18.0047 170.338 16.2416H185.444L185.437 15.8014ZM176.39 7.67447C178.224 7.67447 179.615 8.28676 180.649 9.5433C181.52 10.5958 181.994 11.9556 182.067 13.5834H170.394C170.61 12.1085 171.225 10.7218 172.172 9.57526C172.687 8.95773 173.335 8.46584 174.067 8.13659C174.799 7.80735 175.596 7.64935 176.397 7.67447H176.39Z" fill="#0EA5E9"/>
<path d="M139.574 8.52367H144.148V5.39076H139.319V3.31339C139.319 0.0165997 135.838 0.0166016 135.838 0.0166016V5.39076H132.498V8.52367H135.838V17.7489C135.838 20.0263 136.641 21.8699 138.22 23.2339C139.8 24.5979 141.714 25.2583 144.138 25.2583V22.1977C142.467 22.1977 141.231 21.6892 140.35 20.6457C139.643 19.7832 139.276 18.7214 139.311 17.6381V8.52367H139.574Z" fill="#0EA5E9"/>
<path d="M100.442 7.99969C102.008 7.99969 103.17 8.5162 103.997 9.5812C104.659 10.4607 105.002 11.5434 104.969 12.6483V21.8963C104.969 25.2586 108.227 25.2586 108.227 25.2586V12.5376C108.227 10.2453 107.498 8.376 106.054 6.96912C104.573 5.55732 102.745 4.87109 100.462 4.87109C98.1788 4.87109 96.3869 5.54748 94.9257 6.93961C93.4646 8.33173 92.6938 10.2133 92.6938 12.5376V25.2586H95.9493V12.6557C95.9151 11.5498 96.2586 10.4658 96.9218 9.58611C97.7314 8.5162 98.879 7.99969 100.442 7.99969Z" fill="#0EA5E9"/>
<path d="M161.383 7.32239C159.904 5.94067 158.084 5.26906 155.8 5.26906C154.035 5.26906 152.554 5.67828 151.294 6.49913V0.0166016H148.032V25.251H151.282V12.8878C151.247 11.8053 151.59 10.744 152.253 9.88362C153.076 8.84372 154.231 8.33822 155.792 8.33822C157.353 8.33822 158.514 8.84372 159.339 9.88603C160 10.7468 160.342 11.8065 160.31 12.8878V21.9677C160.31 25.2583 163.565 25.2583 163.565 25.2583V12.7722C163.548 10.5287 162.815 8.69929 161.383 7.32239Z" fill="#0EA5E9"/>
<path d="M193.01 20.4646C193.303 20.9468 193.709 21.3487 194.194 21.6343C194.707 21.9343 195.267 22.1456 195.849 22.2596C196.473 22.3862 197.109 22.4495 197.746 22.4484C198.274 22.446 198.802 22.4075 199.325 22.3331C199.849 22.2662 200.362 22.1268 200.848 21.9187C201.299 21.7267 201.694 21.421 201.993 21.0311C202.308 20.6001 202.467 20.0743 202.444 19.5402C202.464 19.1706 202.388 18.8022 202.223 18.4711C202.059 18.1401 201.811 17.8578 201.505 17.652C200.783 17.1805 199.99 16.8294 199.157 16.6123C198.216 16.3475 197.195 16.1088 196.093 15.8963C195.044 15.6979 194.017 15.3939 193.028 14.989C192.131 14.6281 191.327 14.0662 190.679 13.3461C190.053 12.6415 189.74 11.6607 189.74 10.4036C189.715 9.51423 189.944 8.63639 190.399 7.87296C190.826 7.17971 191.404 6.59284 192.09 6.15647C192.808 5.70423 193.595 5.37291 194.419 5.17562C195.261 4.96462 196.126 4.85676 196.994 4.85439C198.016 4.84709 199.037 4.94238 200.04 5.13884C200.915 5.30649 201.75 5.63933 202.501 6.11969C203.22 6.59322 203.808 7.24299 204.209 8.00783C204.67 8.93 204.926 9.94134 204.961 10.9724H201.768C201.742 10.4168 201.574 9.87729 201.28 9.40554C201.01 8.99576 200.65 8.65353 200.228 8.40507C199.789 8.14892 199.313 7.96358 198.817 7.8558C198.305 7.74304 197.782 7.68631 197.258 7.6866C196.773 7.68806 196.289 7.72576 195.81 7.7994C195.349 7.86756 194.899 8.00132 194.475 8.19664C194.096 8.36895 193.761 8.62751 193.499 8.9519C193.236 9.30455 193.103 9.73788 193.123 10.178C193.116 10.4362 193.165 10.6929 193.265 10.9307C193.366 11.1684 193.516 11.3817 193.706 11.5561C194.139 11.9491 194.643 12.2561 195.19 12.4609C195.849 12.7182 196.529 12.9208 197.221 13.0666C197.973 13.23 198.725 13.4 199.476 13.5766C200.277 13.7532 201.06 13.9665 201.824 14.2166C202.546 14.4486 203.231 14.7857 203.855 15.2171C204.44 15.629 204.927 16.1647 205.283 16.7864C205.668 17.5039 205.856 18.3113 205.827 19.1258C205.866 20.1565 205.612 21.1771 205.095 22.0683C204.615 22.8424 203.958 23.4904 203.179 23.9589C202.356 24.4497 201.451 24.7885 200.509 24.9594C199.536 25.1462 198.548 25.2406 197.558 25.2414C196.521 25.2461 195.486 25.1318 194.475 24.9005C193.549 24.697 192.669 24.3192 191.883 23.7873C191.125 23.2665 190.505 22.5668 190.079 21.7495C189.599 20.7944 189.342 19.742 189.327 18.6721H192.522C192.526 19.3022 192.695 19.9202 193.01 20.4646Z" fill="#0EA5E9"/>
<path d="M220.194 20.4646C220.486 20.9468 220.893 21.3487 221.377 21.6343C221.89 21.9343 222.45 22.1456 223.032 22.2596C223.657 22.3862 224.292 22.4495 224.929 22.4484C225.457 22.446 225.985 22.4075 226.508 22.3331C227.032 22.2662 227.545 22.1268 228.031 21.9187C228.482 21.7267 228.877 21.421 229.176 21.0311C229.491 20.6001 229.65 20.0743 229.628 19.5402C229.647 19.1706 229.571 18.8022 229.406 18.4711C229.242 18.1401 228.994 17.8578 228.688 17.652C227.966 17.1805 227.173 16.8294 226.34 16.6123C225.399 16.3475 224.378 16.1088 223.276 15.8963C222.227 15.6979 221.2 15.3939 220.211 14.989C219.314 14.6281 218.511 14.0662 217.863 13.3461C217.236 12.6415 216.923 11.6607 216.923 10.4036C216.898 9.51423 217.127 8.63639 217.582 7.87296C218.009 7.17971 218.588 6.59284 219.273 6.15647C219.991 5.70423 220.778 5.37291 221.602 5.17562C222.444 4.96462 223.309 4.85676 224.177 4.85439C225.199 4.84709 226.22 4.94238 227.223 5.13884C228.098 5.30649 228.933 5.63933 229.684 6.11969C230.403 6.59322 230.991 7.24299 231.392 8.00783C231.853 8.93 232.109 9.94134 232.144 10.9724H228.951C228.925 10.4168 228.757 9.87729 228.463 9.40554C228.193 8.99576 227.833 8.65353 227.411 8.40507C226.972 8.14892 226.496 7.96358 226 7.8558C225.488 7.74304 224.965 7.68631 224.441 7.6866C223.956 7.68806 223.472 7.72576 222.993 7.7994C222.532 7.86756 222.082 8.00132 221.658 8.19664C221.279 8.36895 220.944 8.62751 220.682 8.9519C220.419 9.30455 220.286 9.73788 220.306 10.178C220.299 10.4362 220.348 10.6929 220.449 10.9307C220.549 11.1684 220.699 11.3817 220.889 11.5561C221.323 11.9491 221.826 12.2561 222.373 12.4609C223.033 12.7182 223.712 12.9208 224.404 13.0666C225.156 13.23 225.908 13.4 226.659 13.5766C227.46 13.7532 228.243 13.9665 229.008 14.2166C229.729 14.4486 230.414 14.7857 231.038 15.2171C231.623 15.629 232.11 16.1647 232.466 16.7864C232.851 17.5039 233.039 18.3113 233.011 19.1258C233.049 20.1565 232.795 21.1771 232.278 22.0683C231.798 22.8424 231.141 23.4904 230.362 23.9589C229.539 24.4497 228.634 24.7885 227.692 24.9594C226.719 25.1462 225.731 25.2406 224.741 25.2414C223.704 25.2461 222.669 25.1318 221.658 24.9005C220.732 24.697 219.852 24.3192 219.066 23.7873C218.308 23.2665 217.688 22.5668 217.262 21.7495C216.782 20.7944 216.525 19.742 216.51 18.6721H219.705C219.71 19.3022 219.878 19.9202 220.194 20.4646Z" fill="#0EA5E9"/>
<path d="M212.627 4.87109V25.2586H209.714V4.87109H212.627Z" fill="#0EA5E9"/>
<path d="M211.375 3.29428C212.293 3.29428 213.036 2.55683 213.036 1.64714C213.036 0.737449 212.293 0 211.375 0C210.458 0 209.714 0.737449 209.714 1.64714C209.714 2.55683 210.458 3.29428 211.375 3.29428Z" fill="#0EA5E9"/>
<path d="M10.1442 13.2798C9.14478 14.2235 8.51961 15.5614 8.51961 17.0467C8.51961 18.2134 8.90586 19.2885 9.55492 20.1526L7.58386 22.1356C7.40865 22.0719 7.2215 22.036 7.02639 22.036C6.59634 22.036 6.19417 22.2033 5.89154 22.5059C5.58891 22.8085 5.42167 23.2147 5.42167 23.6447C5.42167 24.0748 5.58891 24.477 5.89154 24.7796C6.19417 25.0822 6.60032 25.2415 7.02639 25.2415C7.45644 25.2415 7.85861 25.0862 8.16522 24.7796C8.46785 24.477 8.63509 24.0708 8.63509 23.6447C8.63509 23.4775 8.6112 23.3182 8.55943 23.1629L10.5504 21.164C11.4264 21.837 12.5175 22.2351 13.7081 22.2351C16.5711 22.2351 18.8846 19.9137 18.8846 17.0507C18.8846 14.4544 16.9852 12.3042 14.4965 11.9259V9.47305C15.1933 9.17838 15.6194 8.52535 15.6194 7.7648C15.6194 6.72551 14.7872 5.85745 13.7479 5.85745C12.7086 5.85745 11.8883 6.72551 11.8883 7.7648C11.8883 8.52535 12.3144 9.17838 13.0112 9.47305V11.91C12.406 11.9936 11.8326 12.1768 11.3109 12.4515C10.2119 11.6193 6.63218 9.03902 4.58546 7.48208C4.63325 7.30687 4.6651 7.12371 4.6651 6.93257C4.6651 5.78578 3.72935 4.854 2.57857 4.854C1.43177 4.854 0.5 5.78578 0.5 6.93257C0.5 8.08335 1.43177 9.01512 2.57857 9.01512C2.9688 9.01512 3.33115 8.89965 3.64573 8.7125L10.1442 13.2798ZM13.7081 19.7942C12.191 19.7942 10.9605 18.5638 10.9605 17.0467C10.9605 15.5296 12.191 14.2992 13.7081 14.2992C15.2252 14.2992 16.4556 15.5296 16.4556 17.0467C16.4556 18.5638 15.2252 19.7942 13.7081 19.7942Z" fill="#0EA5E9"/>
</svg>
